<svg width="33" height="33" viewBox="0 0 33 33" fill="none" xmlns="http://www.w3.org/2000/svg">
<g clip-path="url(#clip0_1_53)">
<path fill-rule="evenodd" clip-rule="evenodd" d="M19.5887 29.5769C19.5887 28.4709 18.6921 27.5743 17.5861 27.5743H15.1339C14.6027 27.5743 14.0934 27.7853 13.7178 28.1608C13.3422 28.5364 13.1312 29.0458 13.1312 29.5769C13.1312 30.6829 14.0279 31.5795 15.1339 31.5795H17.5861C18.6921 31.5795 19.5887 30.6829 19.5887 29.5769V29.5769ZM4.57005 24.413C4.90455 24.4385 5.30924 24.4532 5.71574 24.4294C5.9323 25.5277 6.4703 26.5463 7.27336 27.3494C8.33949 28.4155 9.78542 29.0144 11.2931 29.0144H12.0572C12.0235 29.1988 12.0062 29.387 12.0062 29.5769C12.0062 29.769 12.0235 29.957 12.0567 30.1394H11.2931C9.48705 30.1394 7.75492 29.422 6.47786 28.1449C5.45905 27.126 4.79636 25.8176 4.57005 24.413V24.413ZM3.9978 23.2159C3.10961 23.0662 2.28311 22.6439 1.63792 21.9987C0.819673 21.1804 0.359985 20.0706 0.359985 18.9134V16.2545C0.359985 15.0973 0.819673 13.9875 1.63792 13.1692C2.45617 12.351 3.56599 11.8912 4.72317 11.8912H5.01361C5.47786 6.03147 10.3805 1.42065 16.36 1.42065C22.3395 1.42065 27.2421 6.03147 27.7064 11.8912H27.9968C29.154 11.8912 30.2638 12.351 31.082 13.1692C31.9003 13.9875 32.36 15.0973 32.36 16.2545V18.9134C32.36 20.0706 31.9003 21.1804 31.082 21.9987C30.2638 22.817 29.154 23.2767 27.9968 23.2767H26.7092C26.1752 23.2767 25.7424 22.8437 25.7424 22.3098V12.803C25.7424 7.62128 21.5417 3.42065 16.36 3.42065C11.1782 3.42065 6.97761 7.62128 6.97761 12.803V22.3098C6.97761 22.6868 6.7618 23.0135 6.44692 23.1729C5.58017 23.4737 4.23599 23.2561 3.9978 23.2159V23.2159Z" fill="#17B978"/>
</g>
<defs>
<clipPath id="clip0_1_53">
<rect width="32" height="32" fill="white" transform="translate(0.359985 0.5)"/>
</clipPath>
</defs>
</svg>
